<?xml version="1.0" standalone="no"?>
<!DOCTYPE svg PUBLIC "-//W3C//DTD SVG 20010904//EN"
 "http://www.w3.org/TR/2001/REC-SVG-20010904/DTD/svg10.dtd">
<svg version="1.0" xmlns="http://www.w3.org/2000/svg"
 width="260.000000pt" height="260.000000pt" viewBox="0 0 260.000000 260.000000"
 preserveAspectRatio="xMidYMid meet">
<metadata>
Created by potrace 1.14, written by Peter Selinger 2001-2017
</metadata>
<g transform="translate(0.000000,260.000000) scale(0.100000,-0.100000)"
fill="#000000" stroke="none">
<path d="M94 2513 c-13 -12 -25 -26 -25 -30 -4 -26 -3 -2273 1 -2273 3 0 193
188 424 419 416 416 418 418 402 442 -8 14 -22 44 -31 68 -89 252 48 522 305
602 116 36 271 20 358 -37 13 -9 25 -14 27 -12 33 29 835 834 835 838 0 3
-511 5 -1136 5 l-1136 0 -24 -22z"/>
<path d="M2116 1971 l-419 -419 26 -59 c57 -128 57 -267 0 -393 -56 -121 -183
-224 -317 -255 -83 -19 -193 -11 -268 20 -35 15 -70 29 -78 31 -10 3 -164
-145 -435 -416 l-420 -420 1143 0 1143 0 24 25 25 24 0 1141 c0 627 -1 1140
-3 1140 -1 0 -191 -189 -421 -419z"/>
<path d="M1228 1584 c-229 -58 -299 -345 -124 -507 51 -47 103 -68 181 -74 63
-5 79 -2 132 21 69 31 120 80 155 146 32 62 33 196 1 255 -70 132 -206 195
-345 159z"/>
</g>
</svg>
